<?xml version="1.0" encoding="iso-8859-1"?>
<!-- Uploaded to: SVG Repo, www.svgrepo.com, Generator: SVG Repo Mixer Tools -->
<svg height="800px" width="800px" version="1.1" id="Layer_1" xmlns="http://www.w3.org/2000/svg" xmlns:xlink="http://www.w3.org/1999/xlink" 
	 viewBox="0 0 512 512" xml:space="preserve">
<g transform="translate(1 1)">
	<path style="fill:#FDCC00;" d="M50.2,451.267h409.6v38.4c0,6.827-5.973,12.8-12.8,12.8H63c-6.827,0-12.8-5.973-12.8-12.8V451.267z"
		/>
	<polygon style="fill:#63D3FD;" points="152.6,109.933 357.4,109.933 357.4,7.533 152.6,7.533 	"/>
	<polygon style="fill:#FDCC00;" points="195.267,178.2 314.733,178.2 314.733,144.067 195.267,144.067 	"/>
	<g>
		<path style="fill:#FFE100;" d="M45.08,348.867h420.693c6.827,0,11.947,5.12,11.947,11.947v79.36
			c0,6.827-5.12,11.947-11.947,11.947H45.08c-6.827-0.853-11.947-5.973-11.947-12.8v-79.36
			C33.133,353.987,38.253,348.867,45.08,348.867"/>
		<polygon style="fill:#FFE100;" points="7.533,348.867 502.467,348.867 502.467,178.2 7.533,178.2 		"/>
	</g>
	<path style="fill:#FFA800;" d="M442.733,451.267v38.4c0,6.827-5.973,12.8-12.8,12.8H447c6.827,0,12.8-5.973,12.8-12.8v-38.4
		H442.733z"/>
	<polygon style="fill:#3DB9F9;" points="340.333,109.933 357.4,109.933 357.4,7.533 340.333,7.533 	"/>
	<g>
		<polygon style="fill:#FFA800;" points="297.667,178.2 314.733,178.2 314.733,144.067 297.667,144.067 		"/>
		<path style="fill:#FFA800;" d="M464.92,348.867h-17.067c6.827,0,11.947,5.12,11.947,11.947v79.36
			c0,6.827-5.12,11.947-11.947,11.947h17.067c6.827,0,11.947-5.12,11.947-11.947v-79.36
			C476.867,353.987,471.747,348.867,464.92,348.867"/>
		<polygon style="fill:#FFA800;" points="485.4,348.867 502.467,348.867 502.467,178.2 485.4,178.2 		"/>
	</g>
	<g>
		<path style="fill:#FFFFFF;" d="M67.267,451.267v38.4c0,6.827,5.973,12.8,12.8,12.8H63c-6.827,0-12.8-5.973-12.8-12.8v-38.4H67.267
			z"/>
		<polygon style="fill:#FFFFFF;" points="152.6,109.933 169.667,109.933 169.667,7.533 152.6,7.533 		"/>
		<polygon style="fill:#FFFFFF;" points="195.267,178.2 212.333,178.2 212.333,144.067 195.267,144.067 		"/>
		<path style="fill:#FFFFFF;" d="M45.08,348.867h17.067c-6.827,0-11.947,5.12-11.947,11.947v79.36
			c0,5.973,5.12,11.093,11.947,11.093H45.08c-6.827,0-11.947-5.12-11.947-11.947v-79.36
			C33.133,353.987,38.253,348.867,45.08,348.867"/>
		<polygon style="fill:#FFFFFF;" points="7.533,348.867 24.6,348.867 24.6,178.2 7.533,178.2 		"/>
	</g>
	<g>
		<polygon style="fill:#00DA6C;" points="50.2,246.467 84.333,246.467 84.333,212.333 50.2,212.333 		"/>
		<polygon style="fill:#00DA6C;" points="50.2,314.733 84.333,314.733 84.333,280.6 50.2,280.6 		"/>
		<polygon style="fill:#00DA6C;" points="118.467,246.467 152.6,246.467 152.6,212.333 118.467,212.333 		"/>
		<polygon style="fill:#00DA6C;" points="118.467,314.733 152.6,314.733 152.6,280.6 118.467,280.6 		"/>
		<polygon style="fill:#00DA6C;" points="357.4,246.467 391.533,246.467 391.533,212.333 357.4,212.333 		"/>
		<polygon style="fill:#00DA6C;" points="357.4,314.733 391.533,314.733 391.533,280.6 357.4,280.6 		"/>
		<polygon style="fill:#00DA6C;" points="425.667,246.467 459.8,246.467 459.8,212.333 425.667,212.333 		"/>
		<polygon style="fill:#00DA6C;" points="425.667,314.733 459.8,314.733 459.8,280.6 425.667,280.6 		"/>
	</g>
	<g>
		<path style="fill:#63D3FD;" d="M408.6,400.067c0-9.387,7.68-17.067,17.067-17.067s17.067,7.68,17.067,17.067
			s-7.68,17.067-17.067,17.067S408.6,409.453,408.6,400.067"/>
		<path style="fill:#63D3FD;" d="M340.333,400.067c0-9.387,7.68-17.067,17.067-17.067s17.067,7.68,17.067,17.067
			s-7.68,17.067-17.067,17.067S340.333,409.453,340.333,400.067"/>
		<path style="fill:#63D3FD;" d="M272.067,400.067c0-9.387,7.68-17.067,17.067-17.067c9.387,0,17.067,7.68,17.067,17.067
			s-7.68,17.067-17.067,17.067C279.747,417.133,272.067,409.453,272.067,400.067"/>
		<path style="fill:#63D3FD;" d="M203.8,400.067c0-9.387,7.68-17.067,17.067-17.067c9.387,0,17.067,7.68,17.067,17.067
			s-7.68,17.067-17.067,17.067C211.48,417.133,203.8,409.453,203.8,400.067"/>
		<path style="fill:#63D3FD;" d="M135.533,400.067c0-9.387,7.68-17.067,17.067-17.067s17.067,7.68,17.067,17.067
			s-7.68,17.067-17.067,17.067S135.533,409.453,135.533,400.067"/>
		<path style="fill:#63D3FD;" d="M67.267,400.067c0-9.387,7.68-17.067,17.067-17.067s17.067,7.68,17.067,17.067
			s-7.68,17.067-17.067,17.067S67.267,409.453,67.267,400.067"/>
	</g>
	<path d="M464.92,459.8H45.08c-11.093,0-20.48-9.387-20.48-20.48v-79.36c0-10.24,9.387-19.627,20.48-19.627h420.693
		c11.093,0,20.48,9.387,20.48,20.48v79.36C485.4,450.413,476.013,459.8,464.92,459.8z M45.08,357.4
		c-1.707,0-3.413,1.707-3.413,3.413v79.36c0,0.853,1.707,2.56,3.413,2.56h420.693c1.707,0,3.413-1.707,3.413-3.413v-79.36
		c0-1.707-1.707-3.413-3.413-3.413H45.08V357.4z"/>
	<path d="M425.667,425.667c-14.507,0-25.6-11.093-25.6-25.6c0-14.507,11.093-25.6,25.6-25.6s25.6,11.093,25.6,25.6
		C451.267,414.573,440.173,425.667,425.667,425.667z M425.667,391.533c-5.12,0-8.533,3.413-8.533,8.533s3.413,8.533,8.533,8.533
		s8.533-3.413,8.533-8.533S430.787,391.533,425.667,391.533z"/>
	<path d="M357.4,425.667c-14.507,0-25.6-11.093-25.6-25.6c0-14.507,11.093-25.6,25.6-25.6s25.6,11.093,25.6,25.6
		C383,414.573,371.907,425.667,357.4,425.667z M357.4,391.533c-5.12,0-8.533,3.413-8.533,8.533s3.413,8.533,8.533,8.533
		s8.533-3.413,8.533-8.533S362.52,391.533,357.4,391.533z"/>
	<path d="M289.133,425.667c-14.507,0-25.6-11.093-25.6-25.6c0-14.507,11.093-25.6,25.6-25.6c14.507,0,25.6,11.093,25.6,25.6
		C314.733,414.573,303.64,425.667,289.133,425.667z M289.133,391.533c-5.12,0-8.533,3.413-8.533,8.533s3.413,8.533,8.533,8.533
		c5.12,0,8.533-3.413,8.533-8.533S294.253,391.533,289.133,391.533z"/>
	<path d="M220.867,425.667c-14.507,0-25.6-11.093-25.6-25.6c0-14.507,11.093-25.6,25.6-25.6c14.507,0,25.6,11.093,25.6,25.6
		C246.467,414.573,235.373,425.667,220.867,425.667z M220.867,391.533c-5.12,0-8.533,3.413-8.533,8.533s3.413,8.533,8.533,8.533
		c5.12,0,8.533-3.413,8.533-8.533S225.987,391.533,220.867,391.533z"/>
	<path d="M152.6,425.667c-14.507,0-25.6-11.093-25.6-25.6c0-14.507,11.093-25.6,25.6-25.6c14.507,0,25.6,11.093,25.6,25.6
		C178.2,414.573,167.107,425.667,152.6,425.667z M152.6,391.533c-5.12,0-8.533,3.413-8.533,8.533s3.413,8.533,8.533,8.533
		c5.12,0,8.533-3.413,8.533-8.533S157.72,391.533,152.6,391.533z"/>
	<path d="M84.333,425.667c-14.507,0-25.6-11.093-25.6-25.6c0-14.507,11.093-25.6,25.6-25.6s25.6,11.093,25.6,25.6
		C109.933,414.573,98.84,425.667,84.333,425.667z M84.333,391.533c-5.12,0-8.533,3.413-8.533,8.533s3.413,8.533,8.533,8.533
		s8.533-3.413,8.533-8.533S89.453,391.533,84.333,391.533z"/>
	<path d="M447,511H63c-11.947,0-21.333-9.387-21.333-21.333v-38.4c0-5.12,3.413-8.533,8.533-8.533h409.6
		c5.12,0,8.533,3.413,8.533,8.533v38.4C468.333,501.613,458.947,511,447,511z M58.733,459.8v29.867c0,2.56,1.707,4.267,4.267,4.267
		h384c2.56,0,4.267-1.707,4.267-4.267V459.8H58.733z"/>
	<path d="M502.467,357.4H7.533c-5.12,0-8.533-3.413-8.533-8.533V178.2c0-5.12,3.413-8.533,8.533-8.533h494.933
		c5.12,0,8.533,3.413,8.533,8.533v170.667C511,353.987,507.587,357.4,502.467,357.4z M16.067,340.333h477.867v-153.6H16.067V340.333
		z"/>
	<path d="M357.4,118.467H152.6c-5.12,0-8.533-3.413-8.533-8.533V7.533c0-5.12,3.413-8.533,8.533-8.533h204.8
		c5.12,0,8.533,3.413,8.533,8.533v102.4C365.933,115.053,362.52,118.467,357.4,118.467z M161.133,101.4h187.733V16.067H161.133
		V101.4z"/>
	<path d="M255,152.6c-5.12,0-8.533-3.413-8.533-8.533v-34.133c0-5.12,3.413-8.533,8.533-8.533s8.533,3.413,8.533,8.533v34.133
		C263.533,149.187,260.12,152.6,255,152.6z"/>
	<path d="M84.333,255H50.2c-5.12,0-8.533-3.413-8.533-8.533v-34.133c0-5.12,3.413-8.533,8.533-8.533h34.133
		c5.12,0,8.533,3.413,8.533,8.533v34.133C92.867,251.587,89.453,255,84.333,255z M58.733,237.933H75.8v-17.067H58.733V237.933z"/>
	<path d="M84.333,323.267H50.2c-5.12,0-8.533-3.413-8.533-8.533V280.6c0-5.12,3.413-8.533,8.533-8.533h34.133
		c5.12,0,8.533,3.413,8.533,8.533v34.133C92.867,319.853,89.453,323.267,84.333,323.267z M58.733,306.2H75.8v-17.067H58.733V306.2z"
		/>
	<path d="M152.6,255h-34.133c-5.12,0-8.533-3.413-8.533-8.533v-34.133c0-5.12,3.413-8.533,8.533-8.533H152.6
		c5.12,0,8.533,3.413,8.533,8.533v34.133C161.133,251.587,157.72,255,152.6,255z M127,237.933h17.067v-17.067H127V237.933z"/>
	<path d="M152.6,323.267h-34.133c-5.12,0-8.533-3.413-8.533-8.533V280.6c0-5.12,3.413-8.533,8.533-8.533H152.6
		c5.12,0,8.533,3.413,8.533,8.533v34.133C161.133,319.853,157.72,323.267,152.6,323.267z M127,306.2h17.067v-17.067H127V306.2z"/>
	<path d="M391.533,255H357.4c-5.12,0-8.533-3.413-8.533-8.533v-34.133c0-5.12,3.413-8.533,8.533-8.533h34.133
		c5.12,0,8.533,3.413,8.533,8.533v34.133C400.067,251.587,396.653,255,391.533,255z M365.933,237.933H383v-17.067h-17.067V237.933z"
		/>
	<path d="M391.533,323.267H357.4c-5.12,0-8.533-3.413-8.533-8.533V280.6c0-5.12,3.413-8.533,8.533-8.533h34.133
		c5.12,0,8.533,3.413,8.533,8.533v34.133C400.067,319.853,396.653,323.267,391.533,323.267z M365.933,306.2H383v-17.067h-17.067
		V306.2z"/>
	<path d="M459.8,255h-34.133c-5.12,0-8.533-3.413-8.533-8.533v-34.133c0-5.12,3.413-8.533,8.533-8.533H459.8
		c5.12,0,8.533,3.413,8.533,8.533v34.133C468.333,251.587,464.92,255,459.8,255z M434.2,237.933h17.067v-17.067H434.2V237.933z"/>
	<path d="M459.8,323.267h-34.133c-5.12,0-8.533-3.413-8.533-8.533V280.6c0-5.12,3.413-8.533,8.533-8.533H459.8
		c5.12,0,8.533,3.413,8.533,8.533v34.133C468.333,319.853,464.92,323.267,459.8,323.267z M434.2,306.2h17.067v-17.067H434.2V306.2z"
		/>
	<path d="M314.733,220.867H195.267c-5.12,0-8.533-3.413-8.533-8.533c0-5.12,3.413-8.533,8.533-8.533h119.467
		c5.12,0,8.533,3.413,8.533,8.533C323.267,217.453,319.853,220.867,314.733,220.867z"/>
	<path d="M314.733,323.267H195.267c-5.12,0-8.533-3.413-8.533-8.533c0-5.12,3.413-8.533,8.533-8.533h119.467
		c5.12,0,8.533,3.413,8.533,8.533C323.267,319.853,319.853,323.267,314.733,323.267z"/>
	<path d="M314.733,272.067H195.267c-5.12,0-8.533-3.413-8.533-8.533c0-5.12,3.413-8.533,8.533-8.533h119.467
		c5.12,0,8.533,3.413,8.533,8.533C323.267,268.653,319.853,272.067,314.733,272.067z"/>
	<path d="M314.733,186.733H195.267c-5.12,0-8.533-3.413-8.533-8.533v-34.133c0-5.12,3.413-8.533,8.533-8.533h119.467
		c5.12,0,8.533,3.413,8.533,8.533V178.2C323.267,183.32,319.853,186.733,314.733,186.733z M203.8,169.667h102.4V152.6H203.8V169.667
		z"/>
</g>
</svg>